# Blender v2.93.0 OBJ File: 'untitled.blend'
# www.blender.org
mtllib light-1.mtl
o Cube
v -61.727486 19.148558 23.126347
v -61.727486 19.148558 20.210079
v -51.690678 25.976173 23.126347
v -51.690678 25.976173 20.210079
v -60.087215 16.737305 23.126347
v -60.087215 16.737305 20.210079
v -50.050407 23.564920 23.126347
v -50.050407 23.564920 20.210079
vt 0.625000 0.500000
vt 0.875000 0.500000
vt 0.875000 0.750000
vt 0.625000 0.750000
vt 0.375000 0.750000
vt 0.625000 1.000000
vt 0.375000 1.000000
vt 0.375000 0.000000
vt 0.625000 0.000000
vt 0.625000 0.250000
vt 0.375000 0.250000
vt 0.125000 0.500000
vt 0.375000 0.500000
vt 0.125000 0.750000
vn 0.0000 0.0000 1.0000
vn 0.8268 0.5625 0.0000
vn 0.5625 -0.8268 0.0000
vn 0.0000 0.0000 -1.0000
vn -0.5625 0.8268 0.0000
vn -0.8268 -0.5625 0.0000
usemtl Material
s off
f 1/1/1 5/2/1 7/3/1 3/4/1
f 4/5/2 3/4/2 7/6/2 8/7/2
f 8/8/3 7/9/3 5/10/3 6/11/3
f 6/12/4 2/13/4 4/5/4 8/14/4
f 2/13/5 1/1/5 3/4/5 4/5/5
f 6/11/6 5/10/6 1/1/6 2/13/6
o xrpeeps
v -24.858967 7.691224 23.328880
v 26.245899 7.691239 23.328880
v -24.858967 5.555284 30.813454
v 26.245899 5.555299 30.813454
v -24.858967 8.163074 23.463535
v 26.245899 8.163090 23.463535
v -24.858967 6.027134 30.948111
v 26.245899 6.027149 30.948111
vt 0.000000 0.000000
vt 0.000000 1.000000
vt 1.000000 1.000000
vt 1.000000 0.000000
vt 0.000000 0.000000
vt 1.000000 0.000000
vt 1.000000 1.000000
vt 0.000000 1.000000
vn -0.0000 0.9616 0.2744
vn 0.0000 -0.9616 -0.2744
vn -0.0000 0.2744 -0.9616
vn 0.0000 -0.2744 0.9616
vn -1.0000 0.0000 0.0000
vn 1.0000 0.0000 0.0000
usemtl xrpeeps
s off
f 9/15/7 11/16/7 12/17/7 10/18/7
f 13/19/8 14/20/8 16/21/8 15/22/8
f 12/17/9 11/16/9 15/22/9 16/21/9
f 9/15/10 10/18/10 14/20/10 13/19/10
f 10/18/11 12/17/11 16/21/11 14/20/11
f 11/16/12 9/15/12 13/19/12 15/22/12
o Cube.001
v -71.902275 1.760601 26.279291
v -71.902275 1.760601 24.514730
v -65.829254 5.891816 26.279291
v -65.829254 5.891816 24.514730
v -70.909790 0.301614 26.279291
v -70.909790 0.301614 24.514730
v -64.836769 4.432829 26.279291
v -64.836769 4.432829 24.514730
vt 0.625000 0.500000
vt 0.875000 0.500000
vt 0.875000 0.750000
vt 0.625000 0.750000
vt 0.375000 0.750000
vt 0.625000 1.000000
vt 0.375000 1.000000
vt 0.375000 0.000000
vt 0.625000 0.000000
vt 0.625000 0.250000
vt 0.375000 0.250000
vt 0.125000 0.500000
vt 0.375000 0.500000
vt 0.125000 0.750000
vn -0.0000 0.0000 1.0000
vn 0.8268 0.5625 0.0000
vn 0.5625 -0.8268 0.0000
vn 0.0000 0.0000 -1.0000
vn -0.5625 0.8268 0.0000
vn -0.8268 -0.5625 0.0000
usemtl Material.001
s off
f 17/23/13 21/24/13 23/25/13 19/26/13
f 20/27/14 19/26/14 23/28/14 24/29/14
f 24/30/15 23/31/15 21/32/15 22/33/15
f 22/34/16 18/35/16 20/27/16 24/36/16
f 18/35/17 17/23/17 19/26/17 20/27/17
f 22/33/18 21/32/18 17/23/18 18/35/18
o Cube.003
v -28.738388 22.936241 34.888966
v -28.738388 22.936241 33.447590
v -22.738678 22.936241 34.888966
v -22.738678 22.936241 33.447590
v -28.738388 21.494865 34.888966
v -28.738388 21.494865 33.447590
v -22.738678 21.494865 34.888966
v -22.738678 21.494865 33.447590
vt 0.625000 0.500000
vt 0.875000 0.500000
vt 0.875000 0.750000
vt 0.625000 0.750000
vt 0.375000 0.750000
vt 0.625000 1.000000
vt 0.375000 1.000000
vt 0.375000 0.000000
vt 0.625000 0.000000
vt 0.625000 0.250000
vt 0.375000 0.250000
vt 0.125000 0.500000
vt 0.375000 0.500000
vt 0.125000 0.750000
vn 0.0000 0.0000 1.0000
vn 1.0000 0.0000 0.0000
vn 0.0000 -1.0000 0.0000
vn 0.0000 0.0000 -1.0000
vn 0.0000 1.0000 0.0000
vn -1.0000 0.0000 0.0000
usemtl Material
s off
f 25/37/19 29/38/19 31/39/19 27/40/19
f 28/41/20 27/40/20 31/42/20 32/43/20
f 32/44/21 31/45/21 29/46/21 30/47/21
f 30/48/22 26/49/22 28/41/22 32/50/22
f 26/49/23 25/37/23 27/40/23 28/41/23
f 30/47/24 29/46/24 25/37/24 26/49/24
o Cube.004
v 19.713955 25.565756 35.753696
v 7.575015 25.565754 35.753696
v 19.713955 25.565756 32.837429
v 7.575015 25.565754 32.837429
v 19.713957 22.649487 35.753696
v 7.575016 22.649485 35.753696
v 19.713957 22.649487 32.837429
v 7.575016 22.649485 32.837429
vt 0.625000 0.500000
vt 0.875000 0.500000
vt 0.875000 0.750000
vt 0.625000 0.750000
vt 0.375000 0.750000
vt 0.625000 1.000000
vt 0.375000 1.000000
vt 0.375000 0.000000
vt 0.625000 0.000000
vt 0.625000 0.250000
vt 0.375000 0.250000
vt 0.125000 0.500000
vt 0.375000 0.500000
vt 0.125000 0.750000
vn 1.0000 0.0000 0.0000
vn 0.0000 0.0000 -1.0000
vn 0.0000 -1.0000 0.0000
vn -1.0000 -0.0000 0.0000
vn -0.0000 1.0000 0.0000
vn -0.0000 0.0000 1.0000
usemtl Material
s off
f 33/51/25 37/52/25 39/53/25 35/54/25
f 36/55/26 35/54/26 39/56/26 40/57/26
f 40/58/27 39/59/27 37/60/27 38/61/27
f 38/62/28 34/63/28 36/55/28 40/64/28
f 34/63/29 33/51/29 35/54/29 36/55/29
f 38/61/30 37/60/30 33/51/30 34/63/30
o Cube.005
v 31.772928 15.025614 35.899738
v 24.602991 16.619492 35.899738
v 31.772928 15.025614 34.135181
v 24.602991 16.619492 34.135181
v 31.390013 13.303102 35.899738
v 24.220076 14.896980 35.899738
v 31.390013 13.303102 34.135181
v 24.220076 14.896980 34.135181
vt 0.625000 0.500000
vt 0.875000 0.500000
vt 0.875000 0.750000
vt 0.625000 0.750000
vt 0.375000 0.750000
vt 0.625000 1.000000
vt 0.375000 1.000000
vt 0.375000 0.000000
vt 0.625000 0.000000
vt 0.625000 0.250000
vt 0.375000 0.250000
vt 0.125000 0.500000
vt 0.375000 0.500000
vt 0.125000 0.750000
vn 0.9762 -0.2170 0.0000
vn 0.0000 0.0000 -1.0000
vn -0.2170 -0.9762 0.0000
vn -0.9762 0.2170 0.0000
vn 0.2170 0.9762 0.0000
vn -0.0000 0.0000 1.0000
usemtl Material.001
s off
f 41/65/31 45/66/31 47/67/31 43/68/31
f 44/69/32 43/68/32 47/70/32 48/71/32
f 48/72/33 47/73/33 45/74/33 46/75/33
f 46/76/34 42/77/34 44/69/34 48/78/34
f 42/77/35 41/65/35 43/68/35 44/69/35
f 46/75/36 45/74/36 41/65/36 42/77/36
o Cube.006
v 12.641615 29.923244 38.142448
v 7.698252 29.923243 38.142448
v 12.641615 29.923244 36.954849
v 7.698252 29.923243 36.954849
v 12.641615 28.735647 38.142448
v 7.698252 28.735645 38.142448
v 12.641615 28.735647 36.954849
v 7.698252 28.735645 36.954849
vt 0.625000 0.500000
vt 0.875000 0.500000
vt 0.875000 0.750000
vt 0.625000 0.750000
vt 0.375000 0.750000
vt 0.625000 1.000000
vt 0.375000 1.000000
vt 0.375000 0.000000
vt 0.625000 0.000000
vt 0.625000 0.250000
vt 0.375000 0.250000
vt 0.125000 0.500000
vt 0.375000 0.500000
vt 0.125000 0.750000
vn 1.0000 0.0000 0.0000
vn 0.0000 0.0000 -1.0000
vn 0.0000 -1.0000 0.0000
vn -1.0000 0.0000 0.0000
vn -0.0000 1.0000 0.0000
vn 0.0000 0.0000 1.0000
usemtl Material
s off
f 49/79/37 53/80/37 55/81/37 51/82/37
f 52/83/38 51/82/38 55/84/38 56/85/38
f 56/86/39 55/87/39 53/88/39 54/89/39
f 54/90/40 50/91/40 52/83/40 56/92/40
f 50/91/41 49/79/41 51/82/41 52/83/41
f 54/89/42 53/88/42 49/79/42 50/91/42
o Cube.007
v 63.666965 4.359136 25.310488
v 58.321880 7.084314 25.310488
v 63.666965 4.359136 23.869112
v 58.321880 7.084314 23.869112
v 63.012264 3.075028 25.310488
v 57.667179 5.800206 25.310488
v 63.012264 3.075028 23.869112
v 57.667179 5.800206 23.869112
vt 0.625000 0.500000
vt 0.875000 0.500000
vt 0.875000 0.750000
vt 0.625000 0.750000
vt 0.375000 0.750000
vt 0.625000 1.000000
vt 0.375000 1.000000
vt 0.375000 0.000000
vt 0.625000 0.000000
vt 0.625000 0.250000
vt 0.375000 0.250000
vt 0.125000 0.500000
vt 0.375000 0.500000
vt 0.125000 0.750000
vn 0.8909 -0.4542 0.0000
vn 0.0000 0.0000 -1.0000
vn -0.4542 -0.8909 0.0000
vn -0.8909 0.4542 0.0000
vn 0.4542 0.8909 0.0000
vn 0.0000 0.0000 1.0000
usemtl Material.001
s off
f 57/93/43 61/94/43 63/95/43 59/96/43
f 60/97/44 59/96/44 63/98/44 64/99/44
f 64/100/45 63/101/45 61/102/45 62/103/45
f 62/104/46 58/105/46 60/97/46 64/106/46
f 58/105/47 57/93/47 59/96/47 60/97/47
f 62/103/48 61/102/48 57/93/48 58/105/48
o Cube.008
v -34.188438 37.586048 29.960054
v -34.188438 37.586052 32.876324
v -22.340733 40.229107 29.960054
v -22.340733 40.229107 32.876324
v -34.823406 40.432354 29.960052
v -34.823406 40.432354 32.876324
v -22.975702 43.075409 29.960052
v -22.975702 43.075413 32.876324
vt 0.625000 0.500000
vt 0.875000 0.500000
vt 0.875000 0.750000
vt 0.625000 0.750000
vt 0.375000 0.750000
vt 0.625000 1.000000
vt 0.375000 1.000000
vt 0.375000 0.000000
vt 0.625000 0.000000
vt 0.625000 0.250000
vt 0.375000 0.250000
vt 0.125000 0.500000
vt 0.375000 0.500000
vt 0.125000 0.750000
vn 0.0000 -0.0000 -1.0000
vn 0.9760 0.2177 0.0000
vn -0.2177 0.9760 0.0000
vn 0.0000 0.0000 1.0000
vn 0.2177 -0.9760 0.0000
vn -0.9760 -0.2177 0.0000
usemtl Material
s off
f 65/107/49 69/108/49 71/109/49 67/110/49
f 68/111/50 67/110/50 71/112/50 72/113/50
f 72/114/51 71/115/51 69/116/51 70/117/51
f 70/118/52 66/119/52 68/111/52 72/120/52
f 66/119/53 65/107/53 67/110/53 68/111/53
f 70/117/54 69/116/54 65/107/54 66/119/54
o Cube.009
v -44.288311 16.282665 31.955074
v -44.288311 16.282667 33.719631
v -37.119568 17.881912 31.955074
v -37.119568 17.881912 33.719631
v -44.672516 18.004890 31.955072
v -44.672516 18.004890 33.719631
v -37.503773 19.604136 31.955072
v -37.503773 19.604137 33.719631
vt 0.625000 0.500000
vt 0.875000 0.500000
vt 0.875000 0.750000
vt 0.625000 0.750000
vt 0.375000 0.750000
vt 0.625000 1.000000
vt 0.375000 1.000000
vt 0.375000 0.000000
vt 0.625000 0.000000
vt 0.625000 0.250000
vt 0.375000 0.250000
vt 0.125000 0.500000
vt 0.375000 0.500000
vt 0.125000 0.750000
vn 0.0000 -0.0000 -1.0000
vn 0.9760 0.2177 -0.0000
vn -0.2177 0.9760 -0.0000
vn -0.0000 0.0000 1.0000
vn 0.2177 -0.9760 0.0000
vn -0.9760 -0.2177 0.0000
usemtl Material.001
s off
f 73/121/55 77/122/55 79/123/55 75/124/55
f 76/125/56 75/124/56 79/126/56 80/127/56
f 80/128/57 79/129/57 77/130/57 78/131/57
f 78/132/58 74/133/58 76/125/58 80/134/58
f 74/133/59 73/121/59 75/124/59 76/125/59
f 78/131/60 77/130/60 73/121/60 74/133/60
o Cube.010
v -58.432964 14.394591 36.807079
v -58.432964 14.394592 37.994678
v -54.345657 17.175014 36.807079
v -54.345657 17.175014 37.994678
v -59.100937 15.376530 36.807079
v -59.100937 15.376531 37.994678
v -55.013630 18.156952 36.807079
v -55.013630 18.156952 37.994678
vt 0.625000 0.500000
vt 0.875000 0.500000
vt 0.875000 0.750000
vt 0.625000 0.750000
vt 0.375000 0.750000
vt 0.625000 1.000000
vt 0.375000 1.000000
vt 0.375000 0.000000
vt 0.625000 0.000000
vt 0.625000 0.250000
vt 0.375000 0.250000
vt 0.125000 0.500000
vt 0.375000 0.500000
vt 0.125000 0.750000
vn 0.0000 0.0000 -1.0000
vn 0.8268 0.5625 0.0000
vn -0.5625 0.8268 0.0000
vn 0.0000 0.0000 1.0000
vn 0.5625 -0.8268 0.0000
vn -0.8268 -0.5625 0.0000
usemtl Material
s off
f 81/135/61 85/136/61 87/137/61 83/138/61
f 84/139/62 83/138/62 87/140/62 88/141/62
f 88/142/63 87/143/63 85/144/63 86/145/63
f 86/146/64 82/147/64 84/139/64 88/148/64
f 82/147/65 81/135/65 83/138/65 84/139/65
f 86/145/66 85/144/66 81/135/66 82/147/66
o Cube.011
v -1.160286 41.953217 23.345396
v -1.160286 41.953217 24.786772
v 4.839425 41.953217 23.345396
v 4.839425 41.953217 24.786772
v -1.160286 43.394592 23.345396
v -1.160286 43.394592 24.786772
v 4.839424 43.394592 23.345396
v 4.839424 43.394592 24.786772
vt 0.625000 0.500000
vt 0.875000 0.500000
vt 0.875000 0.750000
vt 0.625000 0.750000
vt 0.375000 0.750000
vt 0.625000 1.000000
vt 0.375000 1.000000
vt 0.375000 0.000000
vt 0.625000 0.000000
vt 0.625000 0.250000
vt 0.375000 0.250000
vt 0.125000 0.500000
vt 0.375000 0.500000
vt 0.125000 0.750000
vn 0.0000 0.0000 -1.0000
vn 1.0000 0.0000 0.0000
vn 0.0000 1.0000 0.0000
vn 0.0000 0.0000 1.0000
vn 0.0000 -1.0000 0.0000
vn -1.0000 -0.0000 0.0000
usemtl Material
s off
f 89/149/67 93/150/67 95/151/67 91/152/67
f 92/153/68 91/152/68 95/154/68 96/155/68
f 96/156/69 95/157/69 93/158/69 94/159/69
f 94/160/70 90/161/70 92/153/70 96/162/70
f 90/161/71 89/149/71 91/152/71 92/153/71
f 94/159/72 93/158/72 89/149/72 90/161/72
o Cube.012
v 47.940716 36.782494 24.592613
v 36.091034 39.416679 24.592613
v 47.940716 36.782494 27.508883
v 36.091034 39.416679 27.508883
v 48.573555 39.629272 24.592611
v 36.723873 42.263458 24.592611
v 48.573555 39.629272 27.508881
v 36.723873 42.263458 27.508881
vt 0.625000 0.500000
vt 0.875000 0.500000
vt 0.875000 0.750000
vt 0.625000 0.750000
vt 0.375000 0.750000
vt 0.625000 1.000000
vt 0.375000 1.000000
vt 0.375000 0.000000
vt 0.625000 0.000000
vt 0.625000 0.250000
vt 0.375000 0.250000
vt 0.125000 0.500000
vt 0.375000 0.500000
vt 0.125000 0.750000
vn 0.9762 -0.2170 0.0000
vn 0.0000 0.0000 1.0000
vn 0.2170 0.9762 0.0000
vn -0.9762 0.2170 0.0000
vn -0.2170 -0.9762 0.0000
vn 0.0000 -0.0000 -1.0000
usemtl Material
s off
f 97/163/73 101/164/73 103/165/73 99/166/73
f 100/167/74 99/166/74 103/168/74 104/169/74
f 104/170/75 103/171/75 101/172/75 102/173/75
f 102/174/76 98/175/76 100/167/76 104/176/76
f 98/175/77 97/163/77 99/166/77 100/167/77
f 102/173/78 101/172/78 97/163/78 98/175/78
o Cube.013
v 62.323627 35.543308 22.334623
v 55.780075 38.879524 22.334621
v 62.323627 35.543312 24.099182
v 55.780075 38.879524 24.099182
v 63.125122 37.115341 22.334621
v 56.581570 40.451553 22.334621
v 63.125122 37.115341 24.099182
v 56.581570 40.451557 24.099180
vt 0.625000 0.500000
vt 0.875000 0.500000
vt 0.875000 0.750000
vt 0.625000 0.750000
vt 0.375000 0.750000
vt 0.625000 1.000000
vt 0.375000 1.000000
vt 0.375000 0.000000
vt 0.625000 0.000000
vt 0.625000 0.250000
vt 0.375000 0.250000
vt 0.125000 0.500000
vt 0.375000 0.500000
vt 0.125000 0.750000
vn 0.8909 -0.4542 0.0000
vn 0.0000 0.0000 1.0000
vn 0.4542 0.8909 0.0000
vn -0.8909 0.4542 -0.0000
vn -0.4542 -0.8909 0.0000
vn 0.0000 -0.0000 -1.0000
usemtl Material
s off
f 105/177/79 109/178/79 111/179/79 107/180/79
f 108/181/80 107/180/80 111/182/80 112/183/80
f 112/184/81 111/185/81 109/186/81 110/187/81
f 110/188/82 106/189/82 108/181/82 112/190/82
f 106/189/83 105/177/83 107/180/83 108/181/83
f 110/187/84 109/186/84 105/177/84 106/189/84
o Cube.014
v 40.091320 18.428738 20.091915
v 35.265751 19.501463 20.091913
v 40.091320 18.428740 21.279512
v 35.265751 19.501463 21.279512
v 40.349033 19.588037 20.091913
v 35.523464 20.660761 20.091913
v 40.349033 19.588037 21.279512
v 35.523464 20.660763 21.279510
vt 0.625000 0.500000
vt 0.875000 0.500000
vt 0.875000 0.750000
vt 0.625000 0.750000
vt 0.375000 0.750000
vt 0.625000 1.000000
vt 0.375000 1.000000
vt 0.375000 0.000000
vt 0.625000 0.000000
vt 0.625000 0.250000
vt 0.375000 0.250000
vt 0.125000 0.500000
vt 0.375000 0.500000
vt 0.125000 0.750000
vn 0.9762 -0.2170 0.0000
vn -0.0000 0.0000 1.0000
vn 0.2170 0.9762 -0.0000
vn -0.9762 0.2170 0.0000
vn -0.2170 -0.9762 0.0000
vn 0.0000 -0.0000 -1.0000
usemtl Material.001
s off
f 113/191/85 117/192/85 119/193/85 115/194/85
f 116/195/86 115/194/86 119/196/86 120/197/86
f 120/198/87 119/199/87 117/200/87 118/201/87
f 118/202/88 114/203/88 116/195/88 120/204/88
f 114/203/89 113/191/89 115/194/89 116/195/89
f 118/201/90 117/200/90 113/191/90 114/203/90
o Cube.015
v 97.899010 10.785362 32.923874
v 92.553925 13.510540 32.923874
v 97.899010 10.785363 34.365250
v 92.553925 13.510541 34.365250
v 98.553711 12.069470 32.923874
v 93.208626 14.794648 32.923874
v 98.553711 12.069471 34.365250
v 93.208626 14.794649 34.365250
vt 0.625000 0.500000
vt 0.875000 0.500000
vt 0.875000 0.750000
vt 0.625000 0.750000
vt 0.375000 0.750000
vt 0.625000 1.000000
vt 0.375000 1.000000
vt 0.375000 0.000000
vt 0.625000 0.000000
vt 0.625000 0.250000
vt 0.375000 0.250000
vt 0.125000 0.500000
vt 0.375000 0.500000
vt 0.125000 0.750000
vn 0.8909 -0.4542 0.0000
vn 0.0000 0.0000 1.0000
vn 0.4542 0.8909 -0.0000
vn -0.8909 0.4542 -0.0000
vn -0.4542 -0.8909 0.0000
vn 0.0000 0.0000 -1.0000
usemtl Material
s off
f 121/205/91 125/206/91 127/207/91 123/208/91
f 124/209/92 123/208/92 127/210/92 128/211/92
f 128/212/93 127/213/93 125/214/93 126/215/93
f 126/216/94 122/217/94 124/209/94 128/218/94
f 122/217/95 121/205/95 123/208/95 124/209/95
f 126/215/96 125/214/96 121/205/96 122/217/96
o Cube.016
v -56.162243 3.925872 26.577234
v -56.162243 3.925872 25.181311
v -51.357948 7.194032 26.577234
v -51.357948 7.194032 25.181311
v -55.377098 2.771684 26.577234
v -55.377098 2.771684 25.181311
v -50.572803 6.039843 26.577234
v -50.572803 6.039843 25.181311
vt 0.625000 0.500000
vt 0.875000 0.500000
vt 0.875000 0.750000
vt 0.625000 0.750000
vt 0.375000 0.750000
vt 0.625000 1.000000
vt 0.375000 1.000000
vt 0.375000 0.000000
vt 0.625000 0.000000
vt 0.625000 0.250000
vt 0.375000 0.250000
vt 0.125000 0.500000
vt 0.375000 0.500000
vt 0.125000 0.750000
vn -0.0000 0.0000 1.0000
vn 0.8268 0.5625 0.0000
vn 0.5625 -0.8268 0.0000
vn -0.0000 0.0000 -1.0000
vn -0.5625 0.8268 0.0000
vn -0.8268 -0.5625 0.0000
usemtl Material.001
s off
f 129/219/97 133/220/97 135/221/97 131/222/97
f 132/223/98 131/222/98 135/224/98 136/225/98
f 136/226/99 135/227/99 133/228/99 134/229/99
f 134/230/100 130/231/100 132/223/100 136/232/100
f 130/231/101 129/219/101 131/222/101 132/223/101
f 134/229/102 133/228/102 129/219/102 130/231/102
o Cube.017
v 25.854101 14.419679 34.187870
v 20.182041 15.680578 34.187870
v 25.854101 14.419679 32.791943
v 20.182041 15.680578 32.791943
v 25.551182 13.057018 34.187870
v 19.879122 14.317918 34.187870
v 25.551182 13.057018 32.791943
v 19.879122 14.317918 32.791943
vt 0.625000 0.500000
vt 0.875000 0.500000
vt 0.875000 0.750000
vt 0.625000 0.750000
vt 0.375000 0.750000
vt 0.625000 1.000000
vt 0.375000 1.000000
vt 0.375000 0.000000
vt 0.625000 0.000000
vt 0.625000 0.250000
vt 0.375000 0.250000
vt 0.125000 0.500000
vt 0.375000 0.500000
vt 0.125000 0.750000
vn 0.9762 -0.2170 0.0000
vn 0.0000 0.0000 -1.0000
vn -0.2170 -0.9762 0.0000
vn -0.9762 0.2170 0.0000
vn 0.2170 0.9762 0.0000
vn -0.0000 0.0000 1.0000
usemtl Material.001
s off
f 137/233/103 141/234/103 143/235/103 139/236/103
f 140/237/104 139/236/104 143/238/104 144/239/104
f 144/240/105 143/241/105 141/242/105 142/243/105
f 142/244/106 138/245/106 140/237/106 144/246/106
f 138/245/107 137/233/107 139/236/107 140/237/107
f 142/243/108 141/242/108 137/233/108 138/245/108
o Cube.018
v 51.085129 5.981542 25.810823
v 46.856693 8.137401 25.810825
v 51.085129 5.981542 24.670567
v 46.856693 8.137401 24.670568
v 50.567204 4.965697 25.810823
v 46.338768 7.121556 25.810825
v 50.567204 4.965697 24.670567
v 46.338768 7.121556 24.670568
vt 0.625000 0.500000
vt 0.875000 0.500000
vt 0.875000 0.750000
vt 0.625000 0.750000
vt 0.375000 0.750000
vt 0.625000 1.000000
vt 0.375000 1.000000
vt 0.375000 0.000000
vt 0.625000 0.000000
vt 0.625000 0.250000
vt 0.375000 0.250000
vt 0.125000 0.500000
vt 0.375000 0.500000
vt 0.125000 0.750000
vn 0.8909 -0.4542 0.0000
vn 0.0000 0.0000 -1.0000
vn -0.4542 -0.8909 0.0000
vn -0.8909 0.4542 0.0000
vn 0.4542 0.8909 0.0000
vn 0.0000 -0.0000 1.0000
usemtl Material.001
s off
f 145/247/109 149/248/109 151/249/109 147/250/109
f 148/251/110 147/250/110 151/252/110 152/253/110
f 152/254/111 151/255/111 149/256/111 150/257/111
f 150/258/112 146/259/112 148/251/112 152/260/112
f 146/259/113 145/247/113 147/250/113 148/251/113
f 150/257/114 149/256/114 145/247/114 146/259/114
o Cube.019
v -34.317131 15.414119 31.067286
v -34.317131 15.414120 32.463211
v -28.646019 16.679266 31.067286
v -28.646019 16.679266 32.463211
v -34.621071 16.776552 31.067286
v -34.621071 16.776552 32.463207
v -28.949959 18.041698 31.067286
v -28.949959 18.041698 32.463207
vt 0.625000 0.500000
vt 0.875000 0.500000
vt 0.875000 0.750000
vt 0.625000 0.750000
vt 0.375000 0.750000
vt 0.625000 1.000000
vt 0.375000 1.000000
vt 0.375000 0.000000
vt 0.625000 0.000000
vt 0.625000 0.250000
vt 0.375000 0.250000
vt 0.125000 0.500000
vt 0.375000 0.500000
vt 0.125000 0.750000
vn 0.0000 0.0000 -1.0000
vn 0.9760 0.2177 0.0000
vn -0.2177 0.9760 0.0000
vn -0.0000 0.0000 1.0000
vn 0.2177 -0.9760 0.0000
vn -0.9760 -0.2177 0.0000
usemtl Material.001
s off
f 153/261/115 157/262/115 159/263/115 155/264/115
f 156/265/116 155/264/116 159/266/116 160/267/116
f 160/268/117 159/269/117 157/270/117 158/271/117
f 158/272/118 154/273/118 156/265/118 160/274/118
f 154/273/119 153/261/119 155/264/119 156/265/119
f 158/271/120 157/270/120 153/261/120 154/273/120
o Cube.020
v 32.434689 17.111856 21.682468
v 28.617235 17.960476 21.682468
v 32.434689 17.111856 22.621964
v 28.617235 17.960476 22.621964
v 32.638565 18.028965 21.682468
v 28.821108 18.877584 21.682468
v 32.638565 18.028965 22.621964
v 28.821108 18.877584 22.621964
vt 0.625000 0.500000
vt 0.875000 0.500000
vt 0.875000 0.750000
vt 0.625000 0.750000
vt 0.375000 0.750000
vt 0.625000 1.000000
vt 0.375000 1.000000
vt 0.375000 0.000000
vt 0.625000 0.000000
vt 0.625000 0.250000
vt 0.375000 0.250000
vt 0.125000 0.500000
vt 0.375000 0.500000
vt 0.125000 0.750000
vn 0.9762 -0.2170 0.0000
vn 0.0000 0.0000 1.0000
vn 0.2170 0.9762 0.0000
vn -0.9762 0.2170 0.0000
vn -0.2170 -0.9762 0.0000
vn 0.0000 0.0000 -1.0000
usemtl Material.001
s off
f 161/275/121 165/276/121 167/277/121 163/278/121
f 164/279/122 163/278/122 167/280/122 168/281/122
f 168/282/123 167/283/123 165/284/123 166/285/123
f 166/286/124 162/287/124 164/279/124 168/288/124
f 162/287/125 161/275/125 163/278/125 164/279/125
f 166/285/126 165/284/126 161/275/126 162/287/126
