# Blender v2.93.0 OBJ File: 'untitled.blend'
# www.blender.org
mtllib light-8.mtl
o xrpeeps
v -24.858967 23.328880 -7.691224
v 26.245899 23.328880 -7.691239
v -24.858967 30.813454 -5.555284
v 26.245899 30.813454 -5.555299
v -24.858967 23.463535 -8.163074
v 26.245899 23.463535 -8.163090
v -24.858967 30.948111 -6.027134
v 26.245899 30.948111 -6.027149
vt 0.027310 0.000000
vt 0.050506 0.000000
vt 0.050506 1.000000
vt 0.027310 1.000000
vt 0.002546 0.967011
vt 0.002546 0.009197
vt 0.024763 0.009197
vt 0.024763 0.967011
vt 0.027310 0.009095
vt 0.027310 0.966909
vt 0.000000 0.967113
vt 0.000000 0.009298
vt 0.002546 0.000000
vt 0.024763 0.000000
vt 0.024763 0.976208
vt 0.002546 0.976208
vn -0.0000 0.2744 -0.9616
vn 0.0000 -0.2744 0.9616
vn -0.0000 -0.9616 -0.2744
vn 0.0000 0.9616 0.2744
vn -1.0000 0.0000 0.0000
vn 1.0000 0.0000 0.0000
usemtl xrpeeps
s off
f 1/1/1 3/2/1 4/3/1 2/4/1
f 5/5/2 6/6/2 8/7/2 7/8/2
f 4/9/3 3/10/3 7/8/3 8/7/3
f 1/11/4 2/12/4 6/6/4 5/5/4
f 2/13/5 4/14/5 8/7/5 6/6/5
f 3/15/6 1/16/6 5/5/6 7/8/6
o Cube.009
v -44.288311 31.955074 -16.282665
v -44.288311 33.719631 -16.282667
v -37.119568 31.955074 -17.881912
v -37.119568 33.719631 -17.881912
v -44.672516 31.955072 -18.004890
v -44.672516 33.719631 -18.004890
v -37.503773 31.955072 -19.604136
v -37.503773 33.719631 -19.604137
v -71.902275 26.279289 -1.760599
v -71.902275 24.514729 -1.760599
v -65.829262 26.279289 -5.891815
v -65.829262 24.514729 -5.891815
v -70.909790 26.279289 -0.301615
v -70.909790 24.514729 -0.301615
v -64.836777 26.279289 -4.432829
v -64.836777 24.514729 -4.432829
v 31.772926 35.899738 -15.025613
v 24.602989 35.899738 -16.619492
v 31.772919 34.135178 -15.025613
v 24.602989 34.135178 -16.619492
v 31.390007 35.899738 -13.303102
v 24.220078 35.899738 -14.896979
v 31.390007 34.135178 -13.303102
v 24.220070 34.135178 -14.896979
v 63.666969 25.310486 -4.359136
v 58.321877 25.310486 -7.084314
v 63.666969 23.869110 -4.359136
v 58.321877 23.869110 -7.084314
v 63.012260 25.310486 -3.075028
v 57.667168 25.310486 -5.800206
v 63.012260 23.869110 -3.075028
v 57.667168 23.869110 -5.800206
v 40.091316 20.091911 -18.428738
v 35.265747 20.091911 -19.501461
v 40.091316 21.279510 -18.428740
v 35.265747 21.279510 -19.501463
v 40.349030 20.091911 -19.588036
v 35.523460 20.091911 -20.660761
v 40.349030 21.279510 -19.588037
v 35.523460 21.279510 -20.660761
v -56.162247 26.577232 -3.925872
v -56.162247 25.181309 -3.925872
v -51.357948 26.577232 -7.194032
v -51.357948 25.181309 -7.194032
v -55.377098 26.577232 -2.771684
v -55.377098 25.181309 -2.771684
v -50.572803 26.577232 -6.039843
v -50.572803 25.181309 -6.039843
v 25.854095 34.187866 -14.419678
v 20.182037 34.187866 -15.680576
v 25.854095 32.791943 -14.419678
v 20.182037 32.791943 -15.680576
v 25.551178 34.187866 -13.057017
v 19.879120 34.187866 -14.317917
v 25.551178 32.791943 -13.057017
v 19.879120 32.791943 -14.317917
v 51.085121 25.810823 -5.981541
v 46.856689 25.810823 -8.137400
v 51.085121 24.670567 -5.981541
v 46.856689 24.670567 -8.137400
v 50.567192 25.810823 -4.965697
v 46.338760 25.810823 -7.121556
v 50.567192 24.670567 -4.965697
v 46.338760 24.670567 -7.121556
v -34.317131 31.067284 -15.414119
v -34.317131 32.463207 -15.414120
v -28.646019 31.067284 -16.679266
v -28.646019 32.463207 -16.679266
v -34.621071 31.067284 -16.776552
v -34.621071 32.463207 -16.776552
v -28.949959 31.067284 -18.041698
v -28.949959 32.463207 -18.041698
v 32.434692 21.682465 -17.111856
v 28.617233 21.682465 -17.960476
v 32.434692 22.621962 -17.111856
v 28.617233 22.621962 -17.960476
v 32.638565 21.682465 -18.028965
v 28.821106 21.682465 -18.877584
v 32.638565 22.621962 -18.028965
v 28.821106 22.621962 -18.877584
vt 0.429655 0.357687
vt 0.343724 0.357687
vt 0.343724 0.000000
vt 0.429655 0.000000
vt 0.165302 0.875551
vt 0.165302 0.961482
vt 0.085931 0.961482
vt 0.085931 0.875551
vt 0.085931 0.688067
vt 0.000000 0.688067
vt 0.000000 0.357687
vt 0.085931 0.357687
vt 0.515586 0.357687
vt 0.429655 0.357687
vt 0.429655 0.000000
vt 0.515586 0.000000
vt 0.601517 0.687706
vt 0.515586 0.687706
vt 0.515586 0.357326
vt 0.601517 0.357326
vt 0.171862 0.938711
vt 0.171862 0.852780
vt 0.251233 0.852780
vt 0.251233 0.938711
vt 0.171862 0.000000
vt 0.257793 0.000000
vt 0.257793 0.357687
vt 0.171862 0.357687
vt 0.681092 0.881021
vt 0.681092 0.966952
vt 0.619469 0.966952
vt 0.619469 0.881021
vt 0.257793 0.357687
vt 0.343724 0.357687
vt 0.343724 0.614190
vt 0.257793 0.614190
vt 0.085931 0.357687
vt 0.000000 0.357687
vt 0.000000 0.000000
vt 0.085931 0.000000
vt 0.085931 0.357687
vt 0.171862 0.357687
vt 0.171862 0.614191
vt 0.085931 0.614191
vt 0.421085 0.877744
vt 0.421085 0.963675
vt 0.359463 0.963675
vt 0.359463 0.877744
vt 0.773292 0.845248
vt 0.859136 0.845248
vt 0.859136 0.931179
vt 0.773292 0.931179
vt 0.343724 0.000000
vt 0.343724 0.357687
vt 0.257793 0.357687
vt 0.257793 0.000000
vt 0.601517 0.357326
vt 0.601517 0.000000
vt 0.687448 0.000000
vt 0.687448 0.357326
vt 0.773292 0.931179
vt 0.687448 0.931179
vt 0.687448 0.845248
vt 0.773292 0.845248
vt 0.515586 0.357326
vt 0.515586 0.000000
vt 0.601517 0.000000
vt 0.601517 0.357326
vt 0.171862 0.000000
vt 0.171862 0.357687
vt 0.085931 0.357687
vt 0.085931 0.000000
vt 0.496760 0.960545
vt 0.429655 0.960545
vt 0.429655 0.890352
vt 0.496760 0.890352
vt 0.242055 0.357687
vt 0.242055 0.649862
vt 0.171862 0.649862
vt 0.171862 0.357687
vt 0.359463 0.637011
vt 0.359463 0.357687
vt 0.429655 0.357687
vt 0.429655 0.637011
vt 0.582691 0.960816
vt 0.515586 0.960816
vt 0.515586 0.890623
vt 0.582691 0.890623
vt 0.757641 0.000000
vt 0.757641 0.279324
vt 0.687448 0.279324
vt 0.687448 0.000000
vt 0.429655 0.649862
vt 0.499848 0.357687
vt 0.499848 0.649862
vt 0.750238 0.931179
vt 0.808013 0.931179
vt 0.808013 0.989013
vt 0.750238 0.989013
vt 0.619469 0.881021
vt 0.619469 0.640287
vt 0.677303 0.640287
vt 0.677303 0.881021
vt 0.429655 0.890352
vt 0.429655 0.649862
vt 0.487489 0.649862
vt 0.487489 0.890352
vt 0.808013 0.931179
vt 0.865788 0.931179
vt 0.865788 0.989013
vt 0.808013 0.989013
vt 0.883454 0.000000
vt 0.883454 0.240490
vt 0.825620 0.240490
vt 0.825620 0.000000
vt 0.359463 0.877745
vt 0.359463 0.637011
vt 0.417297 0.637011
vt 0.417297 0.877744
vt 0.755427 0.562286
vt 0.823406 0.562286
vt 0.823406 0.845248
vt 0.755427 0.845248
vt 0.987732 0.190249
vt 0.987732 0.258228
vt 0.938982 0.258228
vt 0.938982 0.190249
vt 0.515586 0.687706
vt 0.583565 0.687706
vt 0.583565 0.890623
vt 0.515586 0.890623
vt 0.891385 0.562285
vt 0.823406 0.562285
vt 0.823406 0.279323
vt 0.891385 0.279323
vt 0.171862 0.649863
vt 0.239841 0.649863
vt 0.239841 0.852780
vt 0.171862 0.852780
vt 0.995663 0.469572
vt 0.995663 0.537551
vt 0.946914 0.537551
vt 0.946914 0.469572
vt 0.959296 0.979683
vt 0.891385 0.979683
vt 0.891385 0.911704
vt 0.959296 0.911704
vt 0.755427 0.279324
vt 0.755427 0.562285
vt 0.687448 0.562286
vt 0.687448 0.279324
vt 0.823406 0.844962
vt 0.823406 0.562285
vt 0.891385 0.562285
vt 0.891385 0.844962
vt 0.325704 0.964846
vt 0.257793 0.964846
vt 0.257793 0.896866
vt 0.325704 0.896866
vt 0.325772 0.614190
vt 0.325772 0.896867
vt 0.257793 0.896867
vt 0.257793 0.614190
vt 0.619469 0.640288
vt 0.619469 0.357326
vt 0.687448 0.357326
vt 0.687448 0.640288
vt 0.224948 0.994240
vt 0.171862 0.994240
vt 0.171862 0.938711
vt 0.224948 0.938711
vt 0.938982 0.000000
vt 0.938982 0.231136
vt 0.883454 0.231136
vt 0.883454 0.000000
vt 0.891385 0.721262
vt 0.891385 0.500292
vt 0.946914 0.500292
vt 0.946914 0.721262
vt 1.000000 0.593080
vt 0.946914 0.593080
vt 0.946914 0.537551
vt 1.000000 0.537551
vt 0.946914 0.279324
vt 0.946914 0.500294
vt 0.891385 0.500294
vt 0.891385 0.279324
vt 0.000000 0.919203
vt 0.000000 0.688066
vt 0.055529 0.688066
vt 0.055529 0.919203
vt 0.755427 0.845248
vt 0.687448 0.845248
vt 0.687448 0.562286
vt 0.755427 0.562286
vt 0.750238 0.931179
vt 0.750238 0.999158
vt 0.687448 0.999158
vt 0.687448 0.931179
vt 0.153910 0.875551
vt 0.085931 0.875551
vt 0.085931 0.614191
vt 0.153910 0.614191
vt 0.755427 0.279323
vt 0.823406 0.279323
vt 0.823406 0.562285
vt 0.755427 0.562286
vt 0.757641 0.000000
vt 0.825620 0.000000
vt 0.825620 0.261360
vt 0.757641 0.261360
vt 0.000000 0.987184
vt 0.000000 0.919204
vt 0.062789 0.919204
vt 0.062789 0.987184
vt 0.946914 0.593080
vt 0.992620 0.593080
vt 0.992620 0.638832
vt 0.946914 0.638832
vt 0.937137 0.721262
vt 0.937137 0.911703
vt 0.891386 0.911703
vt 0.891386 0.721262
vt 0.946914 0.469572
vt 0.946914 0.279324
vt 0.992666 0.279324
vt 0.992666 0.469572
vt 0.883454 0.231137
vt 0.929159 0.231137
vt 0.929159 0.276888
vt 0.883454 0.276888
vt 0.984734 0.000000
vt 0.984734 0.190249
vt 0.938982 0.190249
vt 0.938982 0.000000
vt 0.982889 0.721262
vt 0.982889 0.911703
vt 0.937137 0.911703
vt 0.937137 0.721262
vn 0.0000 -1.0000 0.0000
vn 0.9760 -0.0000 -0.2177
vn -0.2177 -0.0000 -0.9760
vn 0.0000 1.0000 0.0000
vn 0.2177 0.0000 0.9760
vn -0.9760 -0.0000 0.2177
vn 0.8268 0.0000 -0.5625
vn 0.5625 0.0000 0.8268
vn -0.5625 0.0000 -0.8268
vn -0.8268 0.0000 0.5625
vn 0.9762 -0.0000 0.2170
vn -0.2170 0.0000 0.9762
vn -0.9762 0.0000 -0.2170
vn 0.2170 -0.0000 -0.9762
vn 0.8909 0.0000 0.4542
vn -0.4542 0.0000 0.8909
vn -0.8909 0.0000 -0.4542
vn 0.4542 0.0000 -0.8909
usemtl Material.001
s off
f 9/17/7 13/18/7 15/19/7 11/20/7
f 12/21/8 11/22/8 15/23/8 16/24/8
f 16/25/9 15/26/9 13/27/9 14/28/9
f 14/29/10 10/30/10 12/31/10 16/32/10
f 10/33/11 9/34/11 11/35/11 12/36/11
f 14/37/12 13/38/12 9/39/12 10/40/12
f 17/41/10 21/42/10 23/43/10 19/44/10
f 20/45/13 19/46/13 23/47/13 24/48/13
f 24/49/14 23/50/14 21/51/14 22/52/14
f 22/53/7 18/54/7 20/55/7 24/56/7
f 18/57/15 17/58/15 19/59/15 20/60/15
f 22/61/16 21/62/16 17/63/16 18/64/16
f 25/65/17 29/66/17 31/67/17 27/68/17
f 28/69/7 27/70/7 31/71/7 32/72/7
f 32/73/18 31/74/18 29/75/18 30/76/18
f 30/77/19 26/78/19 28/79/19 32/80/19
f 26/81/20 25/82/20 27/83/20 28/84/20
f 30/85/10 29/86/10 25/87/10 26/88/10
f 33/89/21 37/90/21 39/91/21 35/92/21
f 36/93/7 35/94/7 39/95/7 40/96/7
f 40/97/22 39/98/22 37/99/22 38/100/22
f 38/101/23 34/102/23 36/103/23 40/104/23
f 34/105/24 33/106/24 35/107/24 36/108/24
f 38/109/10 37/99/10 33/110/10 34/111/10
f 41/112/17 45/113/17 47/114/17 43/115/17
f 44/116/10 43/117/10 47/118/10 48/119/10
f 48/120/20 47/121/20 45/122/20 46/123/20
f 46/124/19 42/125/19 44/126/19 48/127/19
f 42/128/18 41/129/18 43/130/18 44/131/18
f 46/132/7 45/133/7 41/134/7 42/135/7
f 49/136/10 53/137/10 55/138/10 51/139/10
f 52/140/13 51/141/13 55/142/13 56/143/13
f 56/144/14 55/145/14 53/146/14 54/147/14
f 54/148/7 50/149/7 52/150/7 56/151/7
f 50/152/15 49/153/15 51/154/15 52/155/15
f 54/156/16 53/157/16 49/158/16 50/159/16
f 57/160/17 61/161/17 63/162/17 59/163/17
f 60/164/7 59/165/7 63/166/7 64/167/7
f 64/168/18 63/169/18 61/170/18 62/171/18
f 62/172/19 58/173/19 60/174/19 64/175/19
f 58/176/20 57/177/20 59/178/20 60/179/20
f 62/180/10 61/181/10 57/182/10 58/183/10
f 65/184/21 69/185/21 71/186/21 67/187/21
f 68/188/7 67/189/7 71/190/7 72/191/7
f 72/192/22 71/193/22 69/194/22 70/195/22
f 70/196/23 66/197/23 68/198/23 72/199/23
f 66/200/24 65/201/24 67/202/24 68/203/24
f 70/204/10 69/205/10 65/206/10 66/207/10
f 73/208/7 77/209/7 79/210/7 75/211/7
f 76/212/8 75/213/8 79/214/8 80/215/8
f 80/216/9 79/217/9 77/218/9 78/219/9
f 78/220/10 74/221/10 76/222/10 80/223/10
f 74/224/11 73/225/11 75/226/11 76/227/11
f 78/228/12 77/229/12 73/230/12 74/231/12
f 81/232/17 85/233/17 87/234/17 83/235/17
f 84/236/10 83/237/10 87/238/10 88/239/10
f 88/240/20 87/241/20 85/242/20 86/243/20
f 86/244/19 82/245/19 84/246/19 88/247/19
f 82/248/18 81/249/18 83/250/18 84/251/18
f 86/252/7 85/253/7 81/254/7 82/255/7
o Cube.015
v 97.899010 32.923874 -10.785362
v 92.553925 32.923874 -13.510540
v 97.899010 34.365250 -10.785363
v 92.553925 34.365250 -13.510541
v 98.553711 32.923874 -12.069470
v 93.208626 32.923874 -14.794648
v 98.553711 34.365250 -12.069471
v 93.208626 34.365250 -14.794649
v -61.727478 23.126347 -19.148558
v -61.727478 20.210075 -19.148558
v -51.690659 23.126347 -25.976173
v -51.690659 20.210075 -25.976173
v -60.087204 23.126347 -16.737307
v -60.087204 20.210075 -16.737307
v -50.050385 23.126347 -23.564922
v -50.050385 20.210075 -23.564922
v -28.738380 34.888966 -22.936241
v -28.738380 33.447590 -22.936241
v -22.738670 34.888966 -22.936241
v -22.738670 33.447590 -22.936241
v -28.738380 34.888966 -21.494865
v -28.738380 33.447590 -21.494865
v -22.738670 34.888966 -21.494865
v -22.738670 33.447590 -21.494865
v 19.713966 35.753696 -25.565756
v 7.575020 35.753696 -25.565752
v 19.713966 32.837425 -25.565756
v 7.575020 32.837425 -25.565752
v 19.713966 35.753696 -22.649487
v 7.575020 35.753696 -22.649483
v 19.713966 32.837425 -22.649487
v 7.575020 32.837425 -22.649483
v 12.641617 38.142445 -29.923244
v 7.698250 38.142445 -29.923244
v 12.641617 36.954849 -29.923244
v 7.698250 36.954849 -29.923244
v 12.641617 38.142445 -28.735645
v 7.698250 38.142445 -28.735645
v 12.641617 36.954849 -28.735645
v 7.698250 36.954849 -28.735645
v -34.188431 29.960054 -37.586052
v -34.188431 32.876324 -37.586052
v -22.340729 29.960054 -40.229107
v -22.340729 32.876324 -40.229111
v -34.823410 29.960052 -40.432354
v -34.823410 32.876320 -40.432354
v -22.975700 29.960052 -43.075409
v -22.975700 32.876320 -43.075409
v -58.432968 36.807079 -14.394592
v -58.432968 37.994678 -14.394592
v -54.345657 36.807079 -17.175014
v -54.345657 37.994678 -17.175014
v -59.100922 36.807079 -15.376531
v -59.100922 37.994678 -15.376532
v -55.013626 36.807079 -18.156952
v -55.013626 37.994678 -18.156954
v -1.160286 23.345394 -41.953217
v -1.160286 24.786772 -41.953217
v 4.839432 23.345394 -41.953220
v 4.839432 24.786772 -41.953220
v -1.160286 23.345394 -43.394592
v -1.160286 24.786770 -43.394592
v 4.839432 23.345394 -43.394596
v 4.839432 24.786770 -43.394596
v 47.940716 24.592613 -36.782490
v 36.091038 24.592613 -39.416676
v 47.940716 27.508881 -36.782494
v 36.091038 27.508881 -39.416676
v 48.573555 24.592609 -39.629265
v 36.723877 24.592609 -42.263451
v 48.573555 27.508881 -39.629269
v 36.723877 27.508879 -42.263454
v 62.323624 22.334621 -35.543308
v 55.780071 22.334621 -38.879524
v 62.323624 24.099182 -35.543312
v 55.780071 24.099182 -38.879524
v 63.125118 22.334621 -37.115341
v 56.581566 22.334621 -40.451553
v 63.125118 24.099180 -37.115341
v 56.581566 24.099180 -40.451553
vt 0.859888 0.877205
vt 0.897967 0.877205
vt 0.897967 0.923939
vt 0.859888 0.923939
vt 0.907126 0.588118
vt 0.907126 0.782649
vt 0.860392 0.782649
vt 0.860392 0.588118
vt 0.945517 0.782649
vt 0.945517 0.941152
vt 0.898782 0.941152
vt 0.898782 0.782649
vt 0.227190 0.924222
vt 0.189111 0.924222
vt 0.189111 0.877487
vt 0.227190 0.877487
vt 0.907126 0.552089
vt 0.907126 0.393587
vt 0.953861 0.393587
vt 0.953861 0.552089
vt 0.907126 0.393587
vt 0.907126 0.588118
vt 0.860392 0.588118
vt 0.860392 0.393587
vt 0.661888 0.000000
vt 0.756443 0.000000
vt 0.756443 0.393587
vt 0.661888 0.393587
vt 0.898782 0.782649
vt 0.898782 0.877205
vt 0.813657 0.877205
vt 0.813657 0.782649
vt 0.756444 0.000000
vt 0.851000 0.000000
vt 0.851000 0.354332
vt 0.756444 0.354332
vt 0.094555 0.393587
vt 0.000000 0.393587
vt 0.000000 0.000000
vt 0.094555 0.000000
vt 0.661889 0.393587
vt 0.756444 0.393587
vt 0.756444 0.747919
vt 0.661889 0.747919
vt 0.661889 0.825778
vt 0.661889 0.920333
vt 0.576764 0.920333
vt 0.576764 0.825778
vt 0.813658 0.588118
vt 0.860392 0.588118
vt 0.860392 0.782648
vt 0.813658 0.782648
vt 0.859888 0.877205
vt 0.859888 0.923939
vt 0.813657 0.923939
vt 0.813657 0.877205
vt 0.897734 0.000000
vt 0.944468 0.000000
vt 0.944468 0.192436
vt 0.897734 0.192436
vt 0.813657 0.393587
vt 0.860392 0.393587
vt 0.860392 0.588118
vt 0.813657 0.588118
vt 0.755357 0.940353
vt 0.708623 0.940353
vt 0.708623 0.747917
vt 0.755357 0.747917
vt 0.140787 0.877487
vt 0.140787 0.924222
vt 0.094556 0.924222
vt 0.094556 0.877487
vt 0.282648 0.877487
vt 0.189111 0.877487
vt 0.189111 0.782932
vt 0.282648 0.782932
vt 0.283667 0.000000
vt 0.283667 0.393587
vt 0.189111 0.393587
vt 0.189111 0.000000
vt 0.094556 0.782931
vt 0.094556 0.393586
vt 0.189111 0.393586
vt 0.189111 0.782931
vt 0.188093 0.877487
vt 0.094556 0.877487
vt 0.094556 0.782932
vt 0.188093 0.782932
vt 0.283667 0.393587
vt 0.283667 0.782932
vt 0.189111 0.782932
vt 0.189111 0.393587
vt 0.378222 0.000000
vt 0.378222 0.393587
vt 0.283667 0.393587
vt 0.283667 0.000000
vt 0.794535 0.392837
vt 0.756444 0.392837
vt 0.756444 0.354331
vt 0.794535 0.354331
vt 0.982974 0.000000
vt 0.982974 0.160280
vt 0.944468 0.160280
vt 0.944468 0.000000
vt 0.794950 0.825777
vt 0.794950 0.984331
vt 0.756444 0.984331
vt 0.756444 0.825777
vt 0.832626 0.392837
vt 0.794535 0.392837
vt 0.794535 0.354331
vt 0.832626 0.354331
vt 0.945632 0.710643
vt 0.945632 0.552089
vt 0.984138 0.552089
vt 0.984138 0.710643
vt 0.945632 0.552090
vt 0.945632 0.712370
vt 0.907126 0.712370
vt 0.907126 0.552090
vt 0.567333 0.000000
vt 0.661889 0.000000
vt 0.661889 0.393587
vt 0.567333 0.393587
vt 0.378222 0.855705
vt 0.378222 0.761150
vt 0.472529 0.761150
vt 0.472529 0.855705
vt 0.378222 0.786139
vt 0.283667 0.786139
vt 0.283667 0.393587
vt 0.378222 0.393587
vt 0.094556 0.000000
vt 0.189112 0.000000
vt 0.189112 0.393587
vt 0.094556 0.393587
vt 0.094555 0.786139
vt 0.000000 0.786139
vt 0.000000 0.393587
vt 0.094555 0.393587
vt 0.472777 0.855705
vt 0.472777 0.761149
vt 0.567084 0.761149
vt 0.567084 0.855705
vt 0.982973 0.320560
vt 0.944468 0.320560
vt 0.944468 0.160280
vt 0.982973 0.160280
vt 0.570010 0.470599
vt 0.570010 0.432093
vt 0.604676 0.432093
vt 0.604676 0.470599
vt 0.416728 1.000002
vt 0.378222 1.000002
vt 0.378222 0.855707
vt 0.416728 0.855707
vt 0.945517 0.782650
vt 0.984022 0.782650
vt 0.984022 0.942930
vt 0.945517 0.942930
vt 0.992367 0.537882
vt 0.953861 0.537882
vt 0.953861 0.393587
vt 0.992367 0.393587
vt 0.570010 0.432093
vt 0.570010 0.393587
vt 0.604676 0.393587
vt 0.604676 0.432093
vt 0.850999 0.194530
vt 0.897734 0.194530
vt 0.897734 0.389061
vt 0.850999 0.389061
vt 0.519395 0.902439
vt 0.519395 0.855705
vt 0.565626 0.855705
vt 0.565626 0.902439
vt 0.897734 0.192436
vt 0.944468 0.192436
vt 0.944468 0.384872
vt 0.897734 0.384872
vt 0.850999 0.000000
vt 0.897734 0.000000
vt 0.897734 0.194530
vt 0.850999 0.194530
vt 0.661889 0.747917
vt 0.708623 0.747917
vt 0.708623 0.940353
vt 0.661889 0.940353
vt 0.140786 0.924222
vt 0.140786 0.877487
vt 0.187016 0.877487
vt 0.187016 0.924222
vt 0.088304 0.880693
vt 0.000000 0.880693
vt 0.000000 0.786137
vt 0.088304 0.786137
vt 0.472778 0.393586
vt 0.472778 0.000000
vt 0.567333 0.000000
vt 0.567333 0.393586
vt 0.567333 0.761149
vt 0.472778 0.761149
vt 0.472778 0.393586
vt 0.283667 0.786137
vt 0.371970 0.786137
vt 0.371970 0.880692
vt 0.283667 0.880692
vt 0.472778 0.393586
vt 0.472778 0.761149
vt 0.378222 0.761149
vt 0.378222 0.393586
vt 0.472778 0.000000
vt 0.472778 0.393586
vt 0.378222 0.393586
vt 0.378222 0.000000
vt 0.472778 0.855705
vt 0.519395 0.855705
vt 0.519394 0.912918
vt 0.472778 0.912918
vt 0.813657 0.393586
vt 0.813657 0.631735
vt 0.756444 0.631735
vt 0.756444 0.393586
vt 0.813657 0.631735
vt 0.813657 0.825777
vt 0.756444 0.825777
vt 0.756444 0.631735
vt 0.416728 0.855705
vt 0.463346 0.855705
vt 0.463346 0.912918
vt 0.416728 0.912918
vt 0.604676 0.825778
vt 0.604676 0.631735
vt 0.661889 0.631735
vt 0.661889 0.825778
vt 0.604676 0.631735
vt 0.604676 0.393587
vt 0.661889 0.393587
vt 0.661889 0.631735
vn 0.8909 0.0000 0.4542
vn 0.0000 1.0000 0.0000
vn 0.4542 0.0000 -0.8909
vn -0.8909 0.0000 -0.4542
vn -0.4542 0.0000 0.8909
vn 0.0000 -1.0000 0.0000
vn 0.8268 0.0000 -0.5625
vn 0.5625 0.0000 0.8268
vn -0.5625 0.0000 -0.8268
vn -0.8268 0.0000 0.5625
vn 1.0000 0.0000 0.0000
vn 0.0000 0.0000 1.0000
vn 0.0000 0.0000 -1.0000
vn -1.0000 0.0000 0.0000
vn 0.9760 0.0000 -0.2177
vn -0.2177 0.0000 -0.9760
vn 0.2177 0.0000 0.9760
vn -0.9760 0.0000 0.2177
vn -0.8268 0.0000 0.5624
vn 0.9762 0.0000 0.2170
vn 0.2170 -0.0000 -0.9762
vn -0.9762 0.0000 -0.2170
vn -0.2170 0.0000 0.9762
usemtl Material
s off
f 89/256/25 93/257/25 95/258/25 91/259/25
f 92/260/26 91/261/26 95/262/26 96/263/26
f 96/264/27 95/265/27 93/266/27 94/267/27
f 94/268/28 90/269/28 92/270/28 96/271/28
f 90/272/29 89/273/29 91/274/29 92/275/29
f 94/276/30 93/277/30 89/278/30 90/279/30
f 97/280/26 101/281/26 103/282/26 99/283/26
f 100/284/31 99/285/31 103/286/31 104/287/31
f 104/288/32 103/289/32 101/290/32 102/291/32
f 102/292/30 98/293/30 100/294/30 104/295/30
f 98/296/33 97/297/33 99/298/33 100/299/33
f 102/300/34 101/301/34 97/302/34 98/303/34
f 105/304/26 109/305/26 111/306/26 107/307/26
f 108/308/35 107/309/35 111/310/35 112/311/35
f 112/312/36 111/313/36 109/314/36 110/315/36
f 110/316/30 106/317/30 108/318/30 112/319/30
f 106/320/37 105/321/37 107/322/37 108/323/37
f 110/324/38 109/325/38 105/326/38 106/327/38
f 113/328/35 117/329/35 119/330/35 115/331/35
f 116/332/30 115/333/30 119/334/30 120/335/30
f 120/336/36 119/337/36 117/338/36 118/339/36
f 118/340/38 114/341/38 116/342/38 120/343/38
f 114/344/37 113/345/37 115/346/37 116/347/37
f 118/348/26 117/349/26 113/350/26 114/351/26
f 121/352/35 125/353/35 127/354/35 123/355/35
f 124/356/30 123/357/30 127/358/30 128/359/30
f 128/360/36 127/361/36 125/362/36 126/363/36
f 126/364/38 122/365/38 124/366/38 128/367/38
f 122/368/37 121/369/37 123/370/37 124/371/37
f 126/372/26 125/373/26 121/374/26 122/375/26
f 129/376/30 133/377/30 135/378/30 131/379/30
f 132/380/39 131/381/39 135/382/39 136/383/39
f 136/384/40 135/385/40 133/386/40 134/387/40
f 134/388/26 130/389/26 132/390/26 136/391/26
f 130/392/41 129/393/41 131/394/41 132/395/41
f 134/396/42 133/397/42 129/398/42 130/399/42
f 137/400/30 141/401/30 143/402/30 139/403/30
f 140/404/31 139/405/31 143/406/31 144/407/31
f 144/408/33 143/409/33 141/410/33 142/411/33
f 142/412/26 138/413/26 140/414/26 144/415/26
f 138/416/32 137/417/32 139/418/32 140/419/32
f 142/420/43 141/421/43 137/422/43 138/423/43
f 145/424/30 149/425/30 151/426/30 147/427/30
f 148/428/35 147/429/35 151/430/35 152/431/35
f 152/432/37 151/433/37 149/434/37 150/435/37
f 150/436/26 146/437/26 148/438/26 152/439/26
f 146/440/36 145/441/36 147/442/36 148/443/36
f 150/444/38 149/445/38 145/446/38 146/447/38
f 153/448/44 157/449/44 159/450/44 155/451/44
f 156/452/26 155/453/26 159/454/26 160/455/26
f 160/455/45 159/456/45 157/457/45 158/458/45
f 158/459/46 154/460/46 156/461/46 160/462/46
f 154/463/47 153/464/47 155/465/47 156/466/47
f 158/467/30 157/468/30 153/469/30 154/470/30
f 161/471/25 165/472/25 167/473/25 163/474/25
f 164/475/26 163/476/26 167/477/26 168/478/26
f 168/479/27 167/480/27 165/481/27 166/482/27
f 166/483/28 162/484/28 164/485/28 168/486/28
f 162/487/29 161/488/29 163/489/29 164/490/29
f 166/491/30 165/492/30 161/493/30 162/494/30
