{
    "asset" : {
        "generator" : "Khronos glTF Blender I/O v1.1.46",
        "version" : "2.0"
    },
    "scene" : 0,
    "scenes" : [
        {
            "name" : "Scene",
            "nodes" : [
                0
            ]
        }
    ],
    "nodes" : [
        {
            "mesh" : 0,
            "name" : "Cube",
            "scale" : [
                1,
                0.800000011920929,
                1
            ],
            "translation" : [
                -0.11319923400878906,
                1.7380523681640625,
                0.10978317260742188
            ]
        }
    ],
    "materials" : [
        {
            "doubleSided" : true,
            "emissiveFactor" : [
                0,
                0,
                0
            ],
            "name" : "trunk",
            "pbrMetallicRoughness" : {
                "baseColorFactor" : [
                    0.017329499125480652,
                    0.00668339803814888,
                    0.002615702338516712,
                    1
                ],
                "metallicFactor" : 0,
                "roughnessFactor" : 1
            }
        }
    ],
    "meshes" : [
        {
            "name" : "Cube",
            "primitives" : [
                {
                    "attributes" : {
                        "POSITION" : 0,
                        "NORMAL" : 1,
                        "TEXCOORD_0" : 2
                    },
                    "indices" : 3,
                    "material" : 0
                }
            ]
        }
    ],
    "accessors" : [
        {
            "bufferView" : 0,
            "componentType" : 5126,
            "count" : 1216,
            "max" : [
                13.798661231994629,
                41.490013122558594,
                19.313779830932617
            ],
            "min" : [
                -12.017524719238281,
                -1.9682376384735107,
                -12.986937522888184
            ],
            "type" : "VEC3"
        },
        {
            "bufferView" : 1,
            "componentType" : 5126,
            "count" : 1216,
            "type" : "VEC3"
        },
        {
            "bufferView" : 2,
            "componentType" : 5126,
            "count" : 1216,
            "type" : "VEC2"
        },
        {
            "bufferView" : 3,
            "componentType" : 5123,
            "count" : 1824,
            "type" : "SCALAR"
        }
    ],
    "bufferViews" : [
        {
            "buffer" : 0,
            "byteLength" : 14592,
            "byteOffset" : 0
        },
        {
            "buffer" : 0,
            "byteLength" : 14592,
            "byteOffset" : 14592
        },
        {
            "buffer" : 0,
            "byteLength" : 9728,
            "byteOffset" : 29184
        },
        {
            "buffer" : 0,
            "byteLength" : 3648,
            "byteOffset" : 38912
        }
    ],
    "buffers" : [
        {
            "byteLength" : 42560,
            "uri" : "data:application/octet-stream;base64,"
        }
    ]
}
