{
    "asset" : {
        "generator" : "Khronos glTF Blender I/O v1.1.46",
        "version" : "2.0"
    },
    "scene" : 0,
    "scenes" : [
        {
            "name" : "Scene",
            "nodes" : [
                0
            ]
        }
    ],
    "nodes" : [
        {
            "mesh" : 0,
            "name" : "MangoScaled.004",
            "rotation" : [
                0.033634405583143234,
                0.059266913682222366,
                -0.8676868677139282,
                0.49241822957992554
            ],
            "scale" : [
                1.0799524784088135,
                1.0799524784088135,
                1.0799524784088135
            ],
            "translation" : [
                -17.86996078491211,
                14.705202102661133,
                -3.0549697875976562
            ]
        }
    ],
    "materials" : [
        {
            "doubleSided" : true,
            "emissiveFactor" : [
                0,
                0,
                0
            ],
            "name" : "Material.011",
            "pbrMetallicRoughness" : {
                "baseColorFactor" : [
                    0.8000000715255737,
                    0.31362348794937134,
                    0,
                    1
                ],
                "metallicFactor" : 0,
                "roughnessFactor" : 0.800000011920929
            }
        },
        {
            "doubleSided" : true,
            "emissiveFactor" : [
                0,
                0,
                0
            ],
            "name" : "Material.010",
            "pbrMetallicRoughness" : {
                "baseColorFactor" : [
                    0.07998673617839813,
                    0.04078999161720276,
                    0.016456015408039093,
                    1
                ],
                "metallicFactor" : 0,
                "roughnessFactor" : 1
            }
        }
    ],
    "meshes" : [
        {
            "name" : "BezierCurve.047",
            "primitives" : [
                {
                    "attributes" : {
                        "POSITION" : 0,
                        "NORMAL" : 1,
                        "TEXCOORD_0" : 2
                    },
                    "indices" : 3,
                    "material" : 0
                },
                {
                    "attributes" : {
                        "POSITION" : 4,
                        "NORMAL" : 5,
                        "TEXCOORD_0" : 6
                    },
                    "indices" : 7,
                    "material" : 1
                }
            ]
        }
    ],
    "accessors" : [
        {
            "bufferView" : 0,
            "componentType" : 5126,
            "count" : 26120,
            "max" : [
                0.26376456022262573,
                31.161151885986328,
                21.359466552734375
            ],
            "min" : [
                -28.96648406982422,
                -8.13535213470459,
                -19.465991973876953
            ],
            "type" : "VEC3"
        },
        {
            "bufferView" : 1,
            "componentType" : 5126,
            "count" : 26120,
            "type" : "VEC3"
        },
        {
            "bufferView" : 2,
            "componentType" : 5126,
            "count" : 26120,
            "type" : "VEC2"
        },
        {
            "bufferView" : 3,
            "componentType" : 5123,
            "count" : 27312,
            "type" : "SCALAR"
        },
        {
            "bufferView" : 4,
            "componentType" : 5126,
            "count" : 1880,
            "max" : [
                0.02132236212491989,
                31.021318435668945,
                21.142786026000977
            ],
            "min" : [
                -28.618703842163086,
                -7.85595703125,
                -18.94122314453125
            ],
            "type" : "VEC3"
        },
        {
            "bufferView" : 5,
            "componentType" : 5126,
            "count" : 1880,
            "type" : "VEC3"
        },
        {
            "bufferView" : 6,
            "componentType" : 5126,
            "count" : 1880,
            "type" : "VEC2"
        },
        {
            "bufferView" : 7,
            "componentType" : 5123,
            "count" : 1896,
            "type" : "SCALAR"
        }
    ],
    "bufferViews" : [
        {
            "buffer" : 0,
            "byteLength" : 313440,
            "byteOffset" : 0
        },
        {
            "buffer" : 0,
            "byteLength" : 313440,
            "byteOffset" : 313440
        },
        {
            "buffer" : 0,
            "byteLength" : 208960,
            "byteOffset" : 626880
        },
        {
            "buffer" : 0,
            "byteLength" : 54624,
            "byteOffset" : 835840
        },
        {
            "buffer" : 0,
            "byteLength" : 22560,
            "byteOffset" : 890464
        },
        {
            "buffer" : 0,
            "byteLength" : 22560,
            "byteOffset" : 913024
        },
        {
            "buffer" : 0,
            "byteLength" : 15040,
            "byteOffset" : 935584
        },
        {
            "buffer" : 0,
            "byteLength" : 3792,
            "byteOffset" : 950624
        }
    ],
    "buffers" : [
        {
            "byteLength" : 954416,
            "uri" : "data:application/octet-stream;base64,"
        }
    ]
}
